<?xml version="1.0" encoding="UTF-8"?>
<svg id="Layer_2" data-name="Layer 2" xmlns="http://www.w3.org/2000/svg" viewBox="0 0 3084.6 1735.09">
  <defs>
    <style>
      .cls-1 {
        fill: #325da5;
      }
    </style>
  </defs>
  <g id="Layer_1-2" data-name="Layer 1-2">
    <g>
      <path class="cls-1" d="m2092.04825,506.19663c-4.38519-4.9391,12.4464-12.2062,16.9687-13.2989,9.9119-2.3952,13.2778.4825,19.9501-7.1697,11.45331-13.1354,23.64771-28.5411,43.83151-21.8291-11.7352-1.085-39.6463,12.5229-35.44391,27.7574,7.27789,1.611,12.70869,5.4104,19.12711,8.4333-20.13229-.3344-44.7502-1.7599-61.66389,9.472-1.6059.4856-2.1869-.2941-2.76961-3.365h-.00002Z"/>
      <path class="cls-1" d="m1906.41365,593.90284c5.6869-7.0574,18.6997-13.59,29.8296-10.6442-2.5735-21.0868,24.0373-49.2105,44.9962-47.6106-18.6213,11.254-30.0021,26.3841-30.7535,48.6367,7.2719,2.8048,14.9351,13.76981,22.3093,18.9754-11.2531-5.2538-23.8632-10.511-36.1138-11.3811-5.5841-.3968-29.9698,2.38651-30.26779,2.0238Z"/>
      <path class="cls-1" d="m2096.81924,640.98133c3.71049-10.4709,34.1468-13.81461,45.9998-12.21539-5.0379-15.23759-3.3557-31.3019,9.5377-42.6456-20.2543,11.56621-26.0016,10.85381-27.01399,36.8688-17.7971.95979-36.12469.2746-34.3325,23.58211,3.36301-1.46941,6.2728-3.9297,5.80901-5.5899l-.00002-.00002Z"/>
      <path class="cls-1" d="m2268.37566,613.31414c4.3782-5.6187,23.5719-1.48849,30.45911,1.88499.02121-10.2903,4.29831-19.72279,14.43979-24.0127-14.66479,2.9344-18.017,1.33701-23.90201,16.9586-11.02161-3.02049-22.03268-7.14931-25.66299,7.3934,2.34351-.21291,4.612-1.12041,4.66611-2.2243Z"/>
    </g>
  </g>
</svg>