<?xml version="1.0" encoding="UTF-8"?>
<svg id="Layer_2" data-name="Layer 2" xmlns="http://www.w3.org/2000/svg" viewBox="0 0 3084.6 1735.09">
  <defs>
    <style>
      .cls-1 {
        fill: #a7b8d6;
      }
    </style>
  </defs>
  <g id="Layer_1-2" data-name="Layer 1-2">
    <path class="cls-1" d="m0,1735.09c7.30823,20.11011,3080.26768-20.95104,3084.2833,1.00623v-624.71005c-.54614-3.95142-1.09204-7.88672-1.63831-11.83801v.00024c-.16064-1.02795-.30518-2.03992-.43372-3.06787-.44995-3.08398-.88354-6.16797-1.33325-9.25195-.53003-3.58203-1.06006-7.16394-1.59021-10.74585-.48169-3.30884-.97986-6.61768-1.49377-9.92651-.53003-3.43738-1.06006-6.87476-1.59009-10.31201-.48206-3.06799-.96375-6.15186-1.44556-9.21985-.57837-3.64624-1.17249-7.30835-1.76697-10.97058-.51404-3.22864-1.04395-6.45715-1.59021-9.70166-.43372-2.66638-.88354-5.3327-1.33325-7.99908-.5459-3.24463-1.09216-6.4892-1.65442-9.74982-.53003-3.18042-1.09241-6.37677-1.63831-9.57318-.41748-2.4093-.83508-4.81873-1.2688-7.24408-.771-4.43323-1.55811-8.86639-2.36121-13.29968-1.47803-8.27209-2.98767-16.56018-4.54578-24.84839-.85132-4.59387-1.70264-9.17163-2.58606-13.7655-1.73462-9.17163-3.50159-18.35931-5.31653-27.56299-.89966-4.59381-1.81519-9.20367-2.73083-13.8136-7.24414-36.34918-30.42212-60.57123-58.35437-83.70099-.00244-.00098-.00452-.00189-.00671-.00293-17.22644-14.26349-36.2533-28.11029-54.46912-44.1283-40.78125-35.86133-90.94751-99.67133-140.29456-126.26703-27.24109-14.68182-54.91956-14.36462-82.79675-8.68903,1.2959,1.92108,2.6178,3.85919,3.97656,5.81598,18.11218,26.08423,40.46704,46.62512,63.89697,67.36169-23.43274-20.73413-45.78589-41.27441-63.89685-67.35522-1.36536-1.95959-2.68225-3.9032-3.98352-5.81458-31.16089,6.3446-62.59497,19.38733-93.93274,25.66772-58.67578,11.77368-65.29346-23.48322-120.83716-31.8999-60.08936-9.10742-110.10754-5.05957-166.69519-38.63-25.87646-15.35559-45.42444-37.37708-72.61804-52.81299-73.27673-41.55341-142.24829-74.11182-198.78778-133.87982-39.0155-41.21609-94.14172-63.18939-134.76318-101.62659-21.60413-20.4314-27.85217-46.87-49.0545-69.69461-53.43933-57.5675-128.3222-67.5905-171.8031-134.95599-19.25873-29.8278-33.08838-67.0283-71.01172-80.4403-35.65839-12.593-72.12003-8.7219-108.80643-17.2671H0m2875.39731,771.66208c30.72864,11.40051,63.41162,19.4718,95.65735,34.77759,3.69934,1.7558,7.51831,3.4613,11.38855,5.13849-3.87-1.67621-7.68738-3.38159-11.38342-5.13489-32.25061-15.3075-64.93481-23.37958-95.66235-34.78119h-.00012Z"/>
  </g>
</svg>