<?xml version="1.0" encoding="UTF-8"?>
<svg id="Layer_2" data-name="Layer 2" xmlns="http://www.w3.org/2000/svg" viewBox="0 0 3084.6 1735.09">
  <defs>
    <style>
      .cls-1 {
        fill: #4c7ebd;
      }
    </style>
  </defs>
  <g id="Layer_1-2" data-name="Layer 1-2">
    <path class="cls-1" d="m0,441.55501V.17732h205.3091c37.2005,32.8636,73.7263,66.3376,110.81432,99.8116,101.5463,91.5876,239.31323,144.52908,344.98749,229.83632,56.86072,45.89017,130.3139,76.32837,193.26227,116.46817,39.65802,25.2822,80.24762,49.27939,120.5481,73.34082,60.05713,35.86719,99.82764,78.4325,152.57642,119.87341,59.20581,46.5166,105.60999,74.16003,146.71362,134.04041,40.15588,58.49921,67.22095,128.49902,109.88257,185.69702,28.33398,37.98749,75.04346,71.75061,107.34485,108.79041,47.14294,54.04993,99.18506,106.39709,150.5686,157.68433,3.06775,3.06787,5.97522,6.15186,8.73792,9.26794.44983.49805.89954,1.01196,1.33325,1.50989,2.05615,2.34509,4.01562,4.69019,5.8949,7.05139.62634.75488,1.2207,1.52588,1.83105,2.29688.73901.94775,1.46167,1.89539,2.18445,2.85913.65845.85132,1.30103,1.71875,1.92725,2.58606.28955.3855.56238.771.85132,1.15649.78711,1.09229,1.55811,2.16846,2.32922,3.26074.24097.32117.4657.65857.69092.97986.54578.78711,1.09204,1.59021,1.63831,2.39331,1.83105,2.68237,3.59802,5.38086,5.31653,8.07935.49792.78699.97986,1.55798,1.46179,2.34509,1.89514,3.03577,3.72644,6.07153,5.50928,9.09131.78699,1.33313,1.55798,2.66626,2.31274,3.9834,2.52185,4.35291,4.96338,8.70581,7.3728,13.04272.96375,1.73474,1.92749,3.46936,2.89136,5.18811,1.92725,3.46948,3.87085,6.90686,5.83044,10.34424.48193.86731.97998,1.71863,1.47778,2.56995.97986,1.70264,1.97571,3.42114,3.00354,5.12378.49805.85144,1.01196,1.70276,1.52576,2.55396,4.14429,6.87476,8.5293,13.66895,13.39624,20.33496.3855.51404.771,1.04407,1.15649,1.5741.64246.86743,1.30115,1.75085,1.97559,2.61816,2.13647,2.7948,4.36902,5.55762,6.71387,8.28821.59448.70667,1.20471,1.39746,1.81531,2.08813,4.57776,5.20422,9.57312,10.29602,15.09839,15.25916.73901.67456,1.47791,1.33325,2.24915,1.99182.14417.12854.28894.25696.43347.36938.8833.771,1.78296,1.52588,2.68237,2.28088.96375.8031,1.95959,1.6062,2.95544,2.4093.99585.78711,2.00781,1.5741,3.03577,2.36121.81921.64246,1.67053,1.26892,2.52185,1.89526,1.25269.94775,2.5376,1.87927,3.85486,2.79492,79.76575,56.07373,155.45154,116.90186,232.37427,173.15234,1.22046.89954,2.44128,1.79895,3.66199,2.71448,1.22083.91565,2.42542,1.83105,3.63013,2.7627h.01624c4.06384,3.1322,8.06335,6.3125,12.04675,9.55713.08032.06433.14465.12854.22498.17676,1.91125,1.5741,3.82275,3.14832,5.73401,4.72241,3.96753,3.29272,7.90295,6.61768,11.85425,9.95862.49792.43372,1.01172.86743,1.52588,1.28503,2.12036,1.81506,4.24048,3.61414,6.36072,5.39697,10.74573,9.1073,21.58777,18.19861,32.96008,26.80811.97998.73877,1.97559,1.47766,2.97168,2.21655l2.07178,1.54199c.91528.65845,1.83105,1.33313,2.76294,1.9917.65845.49792,1.33301.97986,2.02393,1.44556.96338.69067,1.94336,1.38135,2.9231,2.03992,4.83472,3.37305,9.7981,6.61768,14.90601,9.71765,2.84326,1.73474,5.70239,3.42126,8.56128,5.0918.96362.57812,1.9436,1.14038,2.90747,1.68665,12.62476,7.30823,25.25,14.07056,37.65015,20.86499,3.22852,1.76672,6.44092,3.5498,9.63745,5.33252,4.91528,2.73083,9.76587,5.50964,14.5686,8.33655,1.42944.85132,2.875,1.70239,4.30469,2.56995,1.54199.93164,3.1001,1.87927,4.62598,2.82703.80298.48193,1.59009.97998,2.3772,1.47766,1.0603.67468,2.12036,1.34924,3.18042,2.02393,3.53394,2.26477,7.01929,4.59375,10.45654,7.00317.67456.46582,1.34912.93164,2.02393,1.41345,1.46167,1.02795,2.92334,2.08789,4.3689,3.16431.7229.52991,1.44556,1.07605,2.16846,1.62231.70679.52991,1.42969,1.07605,2.13623,1.63831.7229.54614,1.42944,1.09241,2.13623,1.6543,2.12012,1.67065,4.22437,3.38928,6.29639,5.15625.61011.51379,1.2207,1.02795,1.83081,1.5741.19287.14441.36963.30518.54639.46582,1.14038.97986,2.28076,1.9917,3.38916,3.00354,1.81494,1.65454,3.61401,3.34094,5.38086,5.05945l.46582.46594c.80298.78687,1.59009,1.57397,2.3772,2.37708.89941.91565,1.79907,1.83142,2.66626,2.7627.22485.22498.44971.46582.6748.70691.25684.27307.51392.52991.75488.81921.12842.14441.25708.27295.3855.4176.12842.1283.25684.25696.3855.40161v-.00012h-.01611c-10.11938,1.06006-20.20654,2.3772-30.27759,3.83887h-387.31165c-94.76654,1.19363-116.86744-.86231-240.90515.17732-265.32719.68292-506.85149,1.01631-792-.01801-128.31683.23768-668.34009,2.29833-787.81201-.15931"/>
  </g>
</svg>