<?xml version="1.0" encoding="UTF-8"?>
<svg id="Layer_2" data-name="Layer 2" xmlns="http://www.w3.org/2000/svg" viewBox="0 0 3084.6 1735.09">
  <defs>
    <style>
      .cls-1 {
        fill: #facdb6;
      }
    </style>
  </defs>
  <g id="Layer_1-2" data-name="Layer 1-2">
    <g>
      <path class="cls-1" d="m3084.59988,252.70915v584.28459c-1.31726-.06427-2.63416-.14459-3.95129-.22491s-2.63416-.1767-3.95117-.28912c-.89966-.06427-1.79907-.14459-2.69861-.24103-1.14062-.09631-2.26477-.2088-3.38916-.33728-1.01208-.09631-2.0238-.22479-3.03577-.33728-1.26892-.16058-2.53772-.32123-3.82275-.49792-.93176-.12848-1.86316-.25702-2.79492-.40161h-.0481c-.93176-.14447-1.86316-.30518-2.79492-.44971-.94775-.14459-1.87915-.30518-2.82703-.46582-.94775-.16071-1.87915-.32129-2.82703-.49799-.56213-.09631-1.12427-.19269-1.68665-.30511-1.0116-.19281-2.00781-.3855-3.01941-.59442-.94775-.19269-1.87939-.3855-2.81091-.57819-5.10803-1.07617-10.1676-2.29688-15.16296-3.64618-1.51001-.40149-3.01965-.81909-4.51343-1.25281-.3855-.09637-.75488-.2088-1.14062-.32129-.81897-.22479-1.62207-.46582-2.44128-.72278-.65894-.1767-1.30115-.3855-1.94373-.57819-.67456-.2088-1.34924-.4176-2.0238-.62653-.35339-.09631-.70703-.2088-1.04407-.32123-1.47766-.46582-2.93945-.93158-4.40112-1.4295-1.67065-.5462-3.32495-1.1084-4.97925-1.68658-1.2688-.43372-2.52185-.88342-3.77466-1.34918-.33716-.11249-.67456-.24103-1.01184-.36951-1.12451-.40149-2.24866-.8031-3.35706-1.23682-3.11609-1.17249-6.18408-2.3772-9.21973-3.61401-17.21875-14.26343-36.25293-28.10913-54.48364-44.12329-40.76636-35.86731-90.94507-99.68311-140.2887-126.28229-27.24158-14.68097-80.32215,7.11242-108.20643,12.79851-20.38293-30.21332-45.78797-41.53725-45.99231-94.53991,1.97571-37.03979-52.79712-96.26172-75.0592-127.34241-12.31995-17.2189-25.5556-31.93201-39.64209-44.9425,33.34546,23.6759,70.14453,43.85019,105.38525,67.59039,72.81079,49.0545,98.26929,45.56891,143.14783-1.54199,45.64917-47.93011,117.43188-96.67929,151.82141-146.7457,28.57483-41.60159,28.22156-52.81311,84.71289-59.5432.99585-.1125,1.97571-.241,2.93945-.35339,2.92334-.3373,5.78271-.6907,8.54517-1.0119,1.86316-.2088,3.67847-.4176,5.46106-.6104,3.58191-.3855,7.03564-.72279,10.37634-.9959,1.67029-.12849,3.30896-.24091,4.93115-.3373,5.67004-.3373,11.01892-.4176,16.09436-.1124.62646.0482,1.25293.08031,1.87927.14461.70691.0481,1.39746.1124,2.0719.1927.6748.0643,1.33337.14461,1.99182.24091,2.16846.2731,4.30481.6586,6.37695,1.1405.49792.0963.97986.22479,1.46179.3533.4657.09641.91541.2249,1.36499.36951.4176.09641.81921.22479,1.2207.3533.48206.12849.96387.2892,1.44604.4498.52991.1767,1.05994.3694,1.59009.56219.04822,0,.1123.0321.16028.06419.48206.16071.94788.35339,1.4137.53011.78711.30521,1.55798.6425,2.32898,1.0119.54626.24091,1.07605.49789,1.62231.771l-.00012.00005Z"/>
      <path class="cls-1" d="m0,1735.1177c55.53516,8.4162,2381.44907,11.73616,2440.13218-.0277,31.33972-6.28259,613.29326,6.34692,644.46782,0,0-42.46706-1.45792-882.9423,2.58367-977.04131l-2.58367-182.49505c1.97046-37.03699-496.43811-109.34176-518.69543-140.42946-12.32056-17.2092-25.56201-31.92902-39.65399-44.92999-12.50421-8.87781-24.51562-18.25549-35.77869-28.49271-36.19592-25.01358-76.8811-43.74634-121.39618-65.6348-55.35217-27.21719-54.4657-46.9238-83.72681-101.01849-9.15112-16.91699-19.71167-30.68021-31.80481-42.6664-.36517-.1205-.72998-.22009-1.0954-.34669-17.61609-6.10001-28.97382-19.1368-40.98297-32.3308-6.57129-4.1849-13.4397-8.3033-20.62891-12.4589-40.14722-23.2066-80.46521-44.6503-121.17511-65.5284-28.8833-11.1911-57.39679-22.7494-82.59192-37.9174-2.11279-1.27191-4.21829-2.5385-6.31699-3.7996H0"/>
      <path class="cls-1" d="m3084.59988,1111.21042c-.54614-3.95142-1.09204-7.88672-1.63831-11.83801-.16064-1.02795-.30518-2.03992-.43372-3.06787-.44995-3.08398-.88354-6.16797-1.33325-9.25195-.53003-3.58203-1.06006-7.16394-1.59021-10.74585-.48169-3.30884-.97986-6.61768-1.49377-9.92651-.53003-3.43738-1.06006-6.87476-1.59009-10.31201-.48206-3.06799-.96375-6.15186-1.44556-9.21985-.57837-3.64624-1.17249-7.30835-1.76697-10.97058-.51404-3.22864-1.04395-6.45715-1.59021-9.70166-.43372-2.66638-.88354-5.3327-1.33325-7.99908-.5459-3.24463-1.09216-6.4892-1.65442-9.74982-.53003-3.18042-1.09241-6.37677-1.63831-9.57318-.41748-2.4093-.83508-4.81873-1.2688-7.24408-.771-4.43323-1.55811-8.86639-2.36121-13.29968-1.47803-8.27209-2.98767-16.56018-4.54578-24.84839-.85132-4.59387-1.70264-9.17163-2.58606-13.7655-1.73462-9.17163-3.50159-18.35931-5.31653-27.56299-.89966-4.59381-1.81519-9.20367-2.73083-13.8136-7.24414-36.34918-30.42212-60.57123-58.35437-83.70099,3.03564,1.23682,6.10364,2.44153,9.21973,3.61401,1.10828.43372,2.23254.83533,3.35706,1.23682.33728.12848.6748.25702,1.01184.36951,1.25293.46582,2.50586.91553,3.77466,1.34918,1.65442.57819,3.30872,1.14038,4.97925,1.68658,1.46167.49792,2.92334.96368,4.40112,1.4295.33716.11243.69067.22491,1.04407.32123.67456.20892,1.34924.41772,2.0238.62653.64246.19269,1.28479.40149,1.94373.57819.81921.25702,1.62231.48187,2.44128.72278.38574.11249.75513.22491,1.14062.32129,1.49365.43372,3.00342.85132,4.51343,1.25281,4.99536,1.3493,10.05505,2.57001,15.16296,3.64618.93152.19269,1.86316.3855,2.81091.57819,1.0116.20892,2.00781.40161,3.01941.59442.56238.11243,1.12463.2088,1.68665.30511.94788.1767,1.87915.35339,2.82703.49799.94788.1767,1.87915.33728,2.82703.46582.93176.16058,1.86316.30518,2.79492.44971h.0481c.93164.14459,1.86316.27307,2.79492.40161,1.28516.1767,2.55396.33728,3.82275.49792,1.01196.12848,2.02368.24103,3.03577.33728,1.14038.12848,2.26477.24103,3.38916.33728.89954.09637,1.79895.1767,2.69861.24103,1.31702.11243,2.63416.2088,3.95117.28912,1.31714.09637,2.63416.16058,3.95129.22491v274.21674l.00037-.00012Z"/>
    </g>
  </g>
</svg>